<?xml version="1.0" encoding="UTF-8" standalone="no"?>
<!-- Created with Inkscape (http://www.inkscape.org/) -->

<svg
   width="297mm"
   height="297mm"
   viewBox="0 0 297 297"
   version="1.1"
   id="svg1"
   xml:space="preserve"
   inkscape:version="1.3 (0e150ed, 2023-07-21)"
   sodipodi:docname="favicon.svg"
   xmlns:inkscape="http://www.inkscape.org/namespaces/inkscape"
   xmlns:sodipodi="http://sodipodi.sourceforge.net/DTD/sodipodi-0.dtd"
   xmlns:xlink="http://www.w3.org/1999/xlink"
   xmlns="http://www.w3.org/2000/svg"
   xmlns:svg="http://www.w3.org/2000/svg"><sodipodi:namedview
     id="namedview1"
     pagecolor="#ffffff"
     bordercolor="#000000"
     borderopacity="0.25"
     inkscape:showpageshadow="2"
     inkscape:pageopacity="0.0"
     inkscape:pagecheckerboard="0"
     inkscape:deskcolor="#d1d1d1"
     inkscape:document-units="mm"
     inkscape:zoom="0.5"
     inkscape:cx="692"
     inkscape:cy="541"
     inkscape:window-width="1368"
     inkscape:window-height="916"
     inkscape:window-x="32"
     inkscape:window-y="25"
     inkscape:window-maximized="0"
     inkscape:current-layer="g2"
     showgrid="false" /><defs
     id="defs1"><linearGradient
       id="linearGradient8"
       inkscape:collect="always"><stop
         style="stop-color:#d0d3d9;stop-opacity:1;"
         offset="0"
         id="stop8" /><stop
         style="stop-color:#93a9d4;stop-opacity:1;"
         offset="1"
         id="stop9" /></linearGradient><linearGradient
       inkscape:collect="always"
       xlink:href="#linearGradient8"
       id="linearGradient9"
       x1="104.19064"
       y1="242.27985"
       x2="103.47054"
       y2="43.171341"
       gradientUnits="userSpaceOnUse"
       gradientTransform="translate(24.483502)" /></defs><g
     inkscape:label="Layer 1"
     inkscape:groupmode="layer"
     id="layer1"><g
       id="g2"
       transform="matrix(1.469697,0,0,1.469697,-42.532835,-66.09463)"><rect
         style="fill:url(#linearGradient9);fill-opacity:1;stroke:none;stroke-width:0.264583"
         id="rect2"
         width="201.36971"
         height="201.36971"
         x="29.465309"
         y="45.401936"
         ry="35.595654" /><path
         style="fill:#d45500;fill-opacity:1"
         d="m 123.14518,226.84483 c -0.27072,-0.31618 -0.66168,-0.4486 -1.3244,-0.4486 -0.51716,0 -1.82943,-0.11403 -2.91617,-0.2534 -1.62759,-0.20873 -2.04292,-0.19884 -2.35628,0.0561 -0.33132,0.26953 -0.36261,0.26189 -0.24245,-0.0592 0.11424,-0.30528 -0.0811,-0.39532 -1.13559,-0.52345 -0.70046,-0.0851 -2.27375,-0.34988 -3.4962,-0.58837 -1.22245,-0.23849 -2.43369,-0.37483 -2.69163,-0.30298 -0.38829,0.10815 -0.41109,0.0864 -0.13253,-0.12651 0.26973,-0.20614 0.21412,-0.23045 -0.28038,-0.12257 -0.33926,0.074 -0.61683,0.0398 -0.61683,-0.076 0,-0.11583 -0.68132,-0.36619 -1.51404,-0.55635 -0.83272,-0.19016 -2.10627,-0.55016 -2.8301,-0.80001 -0.72383,-0.24984 -1.40515,-0.3992 -1.51404,-0.3319 -0.10889,0.0673 -0.19798,0.0324 -0.19798,-0.0775 0,-0.24477 -1.5709,-0.74977 -1.83143,-0.58876 -0.103013,0.0637 -0.187295,0.0291 -0.187295,-0.0767 0,-0.10587 -0.365731,-0.32473 -0.812737,-0.48637 -0.677699,-0.24506 -0.848923,-0.24323 -1.03052,0.011 -0.174287,0.24401 -0.196036,0.23556 -0.108898,-0.0423 0.08093,-0.25807 -0.26051,-0.4797 -1.329759,-0.86318 -0.791253,-0.28377 -1.58775,-0.45873 -1.769993,-0.3888 -0.185529,0.0712 -0.33135,0.001 -0.33135,-0.15893 0,-0.15734 -0.726952,-0.63362 -1.615449,-1.05839 -7.892545,-3.77328 -12.716939,-6.89392 -18.908218,-12.2307 -12.416115,-10.70249 -20.181013,-22.04989 -24.85201,-36.31803 -1.474523,-4.50411 -1.957042,-6.36155 -2.709492,-10.43006 -0.971038,-5.25042 -1.150172,-7.5546 -1.133466,-14.57965 0.01814,-7.62817 0.449695,-11.91839 1.816291,-18.05635 4.49195,-20.17522 14.557267,-35.788853 31.252574,-48.479956 11.990433,-9.114647 25.039822,-14.317237 40.823032,-16.275517 1.4888,-0.184721 4.78927,-0.286182 8.97209,-0.275815 5.47886,0.01358 7.23944,0.100569 10.23636,0.505774 10.37982,1.403425 18.79467,3.9281 27.7829,8.335596 12.63424,6.195365 23.67203,15.806035 31.46083,27.393131 7.2363,10.765167 11.98852,23.367227 13.63904,36.168387 0.48452,3.75785 0.65778,11.64183 0.34327,15.6194 -1.26847,16.0419 -6.11097,29.81954 -14.54536,41.38379 -9.92131,13.60292 -23.62853,24.03578 -38.63622,29.40685 -1.66544,0.59605 -3.16238,1.21409 -3.32654,1.37343 -0.16415,0.15935 -0.38781,0.2345 -0.49701,0.16701 -0.32601,-0.20148 -2.70227,0.57596 -2.54386,0.83228 0.0912,0.14752 -0.0312,0.17626 -0.33709,0.0792 -0.41654,-0.1322 -1.29687,0.0405 -2.49189,0.48899 -0.18505,0.0694 -0.48786,0.15548 -0.67291,0.19119 -0.18505,0.0357 -1.56933,0.32219 -3.07619,0.63662 -1.50685,0.31443 -3.65174,0.69312 -4.76642,0.84153 -1.11468,0.14841 -2.02669,0.33511 -2.02669,0.4149 0,0.0798 -0.30157,0.1008 -0.67016,0.0467 -0.36858,-0.0541 -0.84803,-0.0247 -1.06543,0.0654 -0.35398,0.14668 -2.9828,0.34749 -4.60096,0.35146 -0.33925,8.4e-4 -0.61837,0.12362 -0.62026,0.27287 -0.002,0.16956 -0.0863,0.14514 -0.2243,-0.0651 -0.19633,-0.29907 -0.24541,-0.29907 -0.44174,0 -0.14769,0.22499 -0.22201,0.24357 -0.2243,0.0561 -0.002,-0.15421 -0.14643,-0.28038 -0.3212,-0.28038 -0.17477,0 -0.36896,0.12617 -0.43153,0.28038 -0.0837,0.20615 -0.16282,0.21276 -0.29907,0.0249 -0.12288,-0.16939 -1.22969,-0.25696 -3.28562,-0.25996 -2.57594,-0.004 -3.07981,0.0489 -2.97905,0.31151 0.16407,0.42755 0.081,0.39804 -0.37335,-0.13257 z m 11.38737,-9.65144 c 11.72325,-1.09454 23.86629,-5.10955 33.42106,-11.05044 4.66547,-2.90087 11.67837,-8.70717 15.41847,-12.76566 5.75828,-6.24849 8.53691,-10.17498 11.7727,-16.6361 3.18236,-6.35442 4.96888,-12.00433 6.49848,-20.55161 0.59444,-3.32174 0.62222,-3.79658 0.62312,-10.65436 0.001,-7.72583 -0.23612,-10.18823 -1.58773,-16.48623 -1.5578,-7.25876 -4.85347,-15.48539 -8.91742,-22.25962 -3.71755,-6.19681 -10.3869,-13.844749 -15.99868,-18.346149 C 162.65549,77.9296 148.57848,72.485977 131.6387,71.380391 121.07056,70.690655 109.47095,72.891308 98.422751,77.682048 89.670866,81.477056 79.980406,88.546318 73.535797,95.837265 62.780075,108.00548 57.109995,120.36638 55.111618,136.00237 c -0.497612,3.89349 -0.675417,12.58143 -0.32758,16.00634 1.076896,10.60344 4.928696,22.29611 9.932207,30.15058 3.281845,5.15182 6.30304,8.89994 10.593711,13.14265 11.951481,11.81788 26.644224,19.18794 42.736374,21.43708 1.78881,0.25001 3.65613,0.48947 4.14959,0.53213 2.12486,0.1837 10.07284,0.1336 12.33663,-0.0778 z M 96.214987,206.95744 c -0.240516,-0.24051 -0.17085,-4.81499 0.0875,-5.74529 0.274859,-0.98976 1.329202,-2.26698 2.318909,-2.8091 0.645692,-0.35369 2.794234,-0.37796 29.897534,-0.33777 32.30417,0.0479 29.81257,-0.0734 31.21111,1.51947 0.93689,1.06706 1.0459,1.55875 1.0459,4.71769 v 2.69163 l -32.20533,0.0568 c -17.71292,0.0313 -32.272959,-0.0108 -32.35562,-0.0935 z m 13.314173,-15.38416 c 0.008,-3.00485 0.4321,-4.1161 1.99252,-5.21503 l 0.95549,-0.67291 15.7433,-0.0605 15.74329,-0.0605 1.04053,0.65988 c 0.63511,0.40278 1.28824,1.08179 1.6763,1.74273 0.57672,0.98224 0.64331,1.31727 0.71677,3.60624 l 0.081,2.5234 H 128.5006 109.52284 Z m 61.2833,-5.56512 c -3.76859,-0.36882 -7.85063,-1.79591 -10.43824,-3.64921 -2.67848,-1.91838 -5.26441,-5.00329 -6.88013,-8.20769 -1.70752,-3.38648 -2.47798,-9.24112 -1.72913,-13.13944 0.26249,-1.36644 0.2902,-2.05045 0.11614,-2.86658 -0.27993,-1.31249 -0.43528,-0.88393 2.90428,-8.01182 1.47389,-3.14585 3.40926,-7.28422 4.30082,-9.1964 0.89156,-1.91218 2.68196,-5.64681 3.97867,-8.29919 1.2967,-2.65238 3.46524,-7.1945 4.81896,-10.09361 4.62597,-9.9069 4.49192,-9.645 4.93657,-9.645 0.23953,0 0.50803,-0.2436 0.63417,-0.57536 1.10177,-2.89787 -2.04563,-6.1729 -7.18323,-7.4745 -3.1149,-0.78916 -5.44813,-0.92096 -16.31518,-0.9216 l -10.59547,-6.4e-4 -0.77244,1.53387 c -0.42485,0.84363 -1.28317,2.13057 -1.9074,2.85986 l -1.13495,1.32599 -0.002,36.0566 -0.002,36.05661 h -6.95337 -6.95337 v -36.02663 -36.02663 l -1.23394,-1.3328 c -0.70779,-0.76449 -1.54327,-1.99673 -1.95937,-2.88983 l -0.72542,-1.55704 H 107.0529 c -10.946924,0 -13.07655,0.1202 -16.326735,0.92151 -5.411036,1.33405 -8.169151,4.09831 -7.305341,7.32161 0.08159,0.30445 0.308669,0.50468 0.572354,0.50468 0.462914,0 0.963811,0.98053 5.786423,11.32727 1.207521,2.59069 2.97729,6.32533 3.932818,8.29919 0.955528,1.97386 2.57023,5.35522 3.588225,7.51413 2.203812,4.67372 5.250116,11.13012 6.720336,14.2432 1.27134,2.69198 1.40229,3.34877 0.93882,4.70895 -0.32369,0.94998 -0.32342,1.16187 0.003,2.42768 0.53611,2.07845 0.47608,6.25449 -0.12594,8.76125 -1.41367,5.88631 -5.474473,11.15388 -10.566576,13.70667 -3.682445,1.84609 -6.744158,2.47154 -11.247811,2.29771 -3.717201,-0.14348 -5.776188,-0.61095 -8.683634,-1.97153 -8.203748,-3.83908 -13.462537,-13.49095 -12.169319,-22.33532 0.245017,-1.67568 0.229963,-1.86255 -0.233527,-2.89886 -0.285693,-0.63877 -0.500997,-1.5825 -0.508585,-2.22923 -0.01531,-1.30522 -0.09708,-1.12186 11.303446,-25.34617 1.451477,-3.08415 3.527384,-7.51899 4.613125,-9.8552 l 1.974075,-4.24764 -0.49564,-0.79916 c -1.499068,-2.41707 -1.711369,-3.12837 -1.711369,-5.73382 0,-2.29543 0.0484,-2.56889 0.694803,-3.92529 1.86849,-3.92081 5.67264,-6.654361 11.193222,-8.043125 4.481425,-1.127352 4.864394,-1.15327 17.04097,-1.15327 h 11.496 l 0.72877,-1.480333 c 0.41958,-0.852302 1.34298,-2.131434 2.17653,-3.015044 1.30551,-1.38391 1.42199,-1.582876 1.18543,-2.024895 -0.14429,-0.269601 -0.31289,-1.259595 -0.37467,-2.199986 -0.14709,-2.238753 0.42629,-3.8458 1.91409,-5.364781 1.2164,-1.241892 2.20404,-1.758317 3.99636,-2.089645 3.27289,-0.605027 6.49376,1.019799 8.05275,4.062355 0.53501,1.044134 0.67919,3.826364 0.26735,5.158955 l -0.31195,1.009361 1.36314,1.459364 c 0.86615,0.927288 1.60849,2.008666 2.03605,2.965976 l 0.67291,1.506613 11.34412,0.006 c 10.3683,0.0055 11.56455,0.04499 13.90675,0.458956 6.09434,1.077132 10.25247,3.099629 12.87533,6.262509 2.97366,3.58591 3.26498,8.51109 0.70323,11.88916 -0.32223,0.42491 -0.58587,0.87126 -0.58587,0.99188 0,0.23502 3.24295,7.13582 8.13054,17.30127 1.66082,3.45425 3.88038,8.09731 4.93234,10.31791 1.05197,2.22059 2.63109,5.55265 3.50914,7.40457 1.04932,2.21314 1.59439,3.6353 1.5904,4.14959 -0.003,0.43036 -0.3018,1.47582 -0.66326,2.32325 -0.63709,1.49366 -0.65008,1.59656 -0.42458,3.36454 0.93999,7.36974 -2.98156,16.11095 -9.12368,20.33683 -4.17067,2.86951 -9.61718,4.28146 -14.6249,3.79137 z M 86.15053,175.65903 c 0.187987,-0.18799 0.269163,-1.40563 0.269163,-4.03745 v -3.76828 h 3.715735 c 2.132407,0 3.900609,-0.0989 4.149594,-0.23219 0.384675,-0.20587 0.433859,-0.48725 0.433859,-2.48207 0,-1.23744 -0.104488,-2.44512 -0.232194,-2.68374 -0.215957,-0.40352 -0.50614,-0.43386 -4.149594,-0.43386 h -3.9174 v -3.57423 c 0,-1.96583 -0.09844,-3.83315 -0.218751,-4.1496 -0.215626,-0.56714 -0.252359,-0.57536 -2.571585,-0.57536 -2.096615,0 -2.378121,0.0472 -2.585029,0.43386 -0.133253,0.24899 -0.232194,2.01719 -0.232194,4.1496 v 3.71573 h -3.9174 c -4.642111,0 -4.381788,-0.17827 -4.381788,3.00062 0,2.89129 -0.09858,2.83124 4.648107,2.83124 h 3.651081 v 3.46209 c 0,1.90415 0.09844,3.721 0.21875,4.03744 0.21532,0.56634 0.255075,0.57536 2.534617,0.57536 1.50216,0 2.41044,-0.0946 2.585029,-0.26916 z m 93.48293,-10.72289 c 3.6784,-3.70167 6.76776,-6.85592 6.86526,-7.00945 0.0975,-0.15353 0.17881,-0.4656 0.1807,-0.69348 0.005,-0.57723 -2.87219,-3.51096 -3.44303,-3.51096 -0.29649,0 -2.28114,1.81817 -5.65202,5.17792 l -5.19508,5.17791 -4.34872,-4.27596 c -2.68676,-2.64182 -4.52012,-4.27778 -4.79722,-4.28071 -0.26888,-0.003 -1.06049,0.64089 -1.97646,1.60723 -1.30088,1.37241 -1.50676,1.69741 -1.38535,2.18695 0.0851,0.34336 2.50563,2.94678 6.00876,6.46292 4.727,4.74453 5.98162,5.88793 6.46067,5.88793 0.48133,0 1.86766,-1.2812 7.28249,-6.7303 z M 77.423726,144.81269 c 1.365457,-0.4336 2.377973,-0.56675 5.070675,-0.66679 3.930695,-0.14603 5.932721,0.10565 8.370629,1.05229 0.934587,0.36291 1.720298,0.63766 1.746025,0.61058 0.0537,-0.0565 -6.715572,-14.54188 -8.487569,-18.16227 l -1.18048,-2.41185 -2.290213,4.99133 c -1.259617,2.74523 -3.404241,7.40915 -4.765832,10.36426 -1.361591,2.95512 -2.530848,5.54695 -2.598348,5.75962 -0.09817,0.3093 0.132612,0.24839 1.153122,-0.30434 0.701718,-0.38007 2.043614,-0.93484 2.981991,-1.23283 z M 180.65839,139.6813 c -1.71778,-3.68886 -3.92571,-8.3912 -4.9065,-10.44964 l -1.78327,-3.74262 -0.72476,1.4996 c -3.95247,8.17795 -8.79054,18.7099 -8.65641,18.84403 0.0551,0.0551 0.58264,-0.10657 1.17238,-0.35919 1.86083,-0.79708 3.6825,-1.1754 6.3565,-1.3201 3.97858,-0.2153 7.34193,0.43099 10.41909,2.00209 0.61564,0.31433 1.14789,0.49531 1.18278,0.40218 0.0349,-0.0931 -1.34203,-3.1875 -3.05981,-6.87635 z m -49.77825,-34.83956 c 3.0171,-1.91339 3.08008,-6.448596 0.11369,-8.186894 -2.01376,-1.18006 -4.05781,-0.95724 -5.62603,0.613289 -2.50636,2.510043 -1.75241,6.708255 1.43302,7.979545 0.30473,0.12162 1.11468,0.22752 1.79988,0.23534 1.00659,0.0115 1.44431,-0.11165 2.27944,-0.64128 z m -13.84317,121.77879 c -0.0763,-0.12337 -0.0377,-0.2243 0.0857,-0.2243 0.12337,0 0.28669,0.10093 0.36293,0.2243 0.0763,0.12337 0.0377,0.2243 -0.0857,0.2243 -0.12337,0 -0.28669,-0.10093 -0.36293,-0.2243 z"
         id="path1" /></g></g></svg>
